<?xml version="1.0" encoding="UTF-8"?>
<svg xmlns="http://www.w3.org/2000/svg" xmlns:xlink="http://www.w3.org/1999/xlink" width="410pt" height="360pt" viewBox="0 0 410 360">
<defs>
<g>
<g id="glyph-0-0">
<path d="M 8.085938 -3.796875 L 9.8125 -3.574219 C 9.625 -2.382812 9.140625 -1.449219 8.363281 -0.777344 C 7.585938 -0.101562 6.632812 0.234375 5.5 0.234375 C 4.078125 0.234375 2.9375 -0.230469 2.074219 -1.15625 C 1.210938 -2.085938 0.78125 -3.414062 0.78125 -5.148438 C 0.78125 -6.265625 0.96875 -7.246094 1.335938 -8.085938 C 1.710938 -8.925781 2.273438 -9.554688 3.03125 -9.976562 C 3.789062 -10.394531 4.617188 -10.605469 5.507812 -10.605469 C 6.632812 -10.605469 7.554688 -10.320312 8.273438 -9.75 C 8.988281 -9.179688 9.445312 -8.371094 9.648438 -7.324219 L 7.9375 -7.0625 C 7.777344 -7.757812 7.488281 -8.28125 7.074219 -8.632812 C 6.660156 -8.984375 6.164062 -9.160156 5.578125 -9.160156 C 4.691406 -9.160156 3.972656 -8.84375 3.417969 -8.207031 C 2.863281 -7.574219 2.585938 -6.570312 2.585938 -5.195312 C 2.585938 -3.800781 2.855469 -2.789062 3.390625 -2.15625 C 3.921875 -1.527344 4.617188 -1.210938 5.476562 -1.210938 C 6.167969 -1.210938 6.746094 -1.421875 7.207031 -1.84375 C 7.667969 -2.269531 7.960938 -2.921875 8.085938 -3.796875 Z M 8.085938 -3.796875 "/>
</g>
<g id="glyph-0-1">
<path d="M 8.085938 -1.28125 C 7.433594 -0.726562 6.808594 -0.335938 6.207031 -0.109375 C 5.605469 0.121094 4.957031 0.234375 4.265625 0.234375 C 3.128906 0.234375 2.253906 -0.0429688 1.640625 -0.601562 C 1.027344 -1.15625 0.722656 -1.867188 0.722656 -2.734375 C 0.722656 -3.242188 0.839844 -3.707031 1.070312 -4.125 C 1.300781 -4.546875 1.601562 -4.882812 1.976562 -5.136719 C 2.351562 -5.390625 2.773438 -5.582031 3.242188 -5.710938 C 3.585938 -5.804688 4.109375 -5.890625 4.804688 -5.976562 C 6.222656 -6.144531 7.269531 -6.347656 7.9375 -6.582031 C 7.945312 -6.824219 7.949219 -6.976562 7.949219 -7.039062 C 7.949219 -7.757812 7.78125 -8.261719 7.453125 -8.554688 C 7 -8.953125 6.335938 -9.148438 5.449219 -9.148438 C 4.621094 -9.148438 4.011719 -9.003906 3.617188 -8.714844 C 3.222656 -8.425781 2.933594 -7.914062 2.742188 -7.179688 L 1.023438 -7.414062 C 1.179688 -8.148438 1.4375 -8.742188 1.796875 -9.195312 C 2.15625 -9.648438 2.671875 -9.996094 3.351562 -10.238281 C 4.027344 -10.484375 4.8125 -10.605469 5.703125 -10.605469 C 6.589844 -10.605469 7.308594 -10.5 7.859375 -10.292969 C 8.414062 -10.085938 8.820312 -9.824219 9.082031 -9.507812 C 9.34375 -9.191406 9.523438 -8.792969 9.628906 -8.3125 C 9.6875 -8.011719 9.71875 -7.46875 9.71875 -6.6875 L 9.71875 -4.34375 C 9.71875 -2.710938 9.753906 -1.679688 9.828125 -1.246094 C 9.902344 -0.8125 10.050781 -0.398438 10.273438 0 L 8.4375 0 C 8.253906 -0.363281 8.136719 -0.789062 8.085938 -1.28125 M 7.9375 -5.203125 C 7.300781 -4.945312 6.34375 -4.722656 5.070312 -4.539062 C 4.34375 -4.4375 3.835938 -4.320312 3.535156 -4.1875 C 3.234375 -4.058594 3.003906 -3.867188 2.84375 -3.617188 C 2.679688 -3.367188 2.597656 -3.089844 2.597656 -2.78125 C 2.597656 -2.3125 2.773438 -1.921875 3.128906 -1.609375 C 3.484375 -1.296875 4.003906 -1.140625 4.6875 -1.140625 C 5.363281 -1.140625 5.96875 -1.289062 6.492188 -1.585938 C 7.023438 -1.882812 7.410156 -2.289062 7.65625 -2.804688 C 7.84375 -3.199219 7.9375 -3.785156 7.9375 -4.5625 Z M 7.9375 -5.203125 "/>
</g>
<g id="glyph-0-2">
<path d="M 1.320312 0 L 1.320312 -10.371094 L 2.898438 -10.371094 L 2.898438 -8.898438 C 3.660156 -10.035156 4.761719 -10.605469 6.203125 -10.605469 C 6.828125 -10.605469 7.402344 -10.492188 7.925781 -10.269531 C 8.449219 -10.042969 8.839844 -9.75 9.101562 -9.382812 C 9.363281 -9.019531 9.542969 -8.585938 9.648438 -8.085938 C 9.714844 -7.761719 9.746094 -7.191406 9.746094 -6.375 L 9.746094 0 L 7.988281 0 L 7.988281 -6.308594 C 7.988281 -7.023438 7.921875 -7.558594 7.78125 -7.914062 C 7.648438 -8.269531 7.402344 -8.554688 7.054688 -8.765625 C 6.707031 -8.976562 6.296875 -9.082031 5.828125 -9.082031 C 5.082031 -9.082031 4.433594 -8.84375 3.890625 -8.367188 C 3.347656 -7.894531 3.078125 -6.992188 3.078125 -5.664062 L 3.078125 0 Z M 1.320312 0 "/>
</g>
<g id="glyph-0-3">
<path d="M 0.664062 -5.1875 C 0.664062 -7.105469 1.199219 -8.527344 2.265625 -9.453125 C 3.15625 -10.222656 4.246094 -10.605469 5.527344 -10.605469 C 6.953125 -10.605469 8.117188 -10.136719 9.023438 -9.203125 C 9.929688 -8.269531 10.382812 -6.980469 10.382812 -5.332031 C 10.382812 -3.996094 10.179688 -2.949219 9.78125 -2.183594 C 9.378906 -1.417969 8.796875 -0.824219 8.03125 -0.398438 C 7.265625 0.0234375 6.433594 0.234375 5.527344 0.234375 C 4.074219 0.234375 2.902344 -0.230469 2.007812 -1.164062 C 1.113281 -2.09375 0.664062 -3.433594 0.664062 -5.1875 M 2.46875 -5.1875 C 2.46875 -3.859375 2.761719 -2.863281 3.339844 -2.203125 C 3.917969 -1.542969 4.648438 -1.210938 5.527344 -1.210938 C 6.398438 -1.210938 7.125 -1.542969 7.703125 -2.207031 C 8.285156 -2.871094 8.574219 -3.882812 8.574219 -5.242188 C 8.574219 -6.527344 8.28125 -7.5 7.699219 -8.160156 C 7.117188 -8.820312 6.394531 -9.148438 5.527344 -9.148438 C 4.648438 -9.148438 3.917969 -8.820312 3.339844 -8.164062 C 2.761719 -7.507812 2.46875 -6.515625 2.46875 -5.1875 Z M 2.46875 -5.1875 "/>
</g>
<g id="glyph-0-4">
<path d="M 1.320312 3.976562 L 1.320312 -10.371094 L 2.921875 -10.371094 L 2.921875 -9.023438 C 3.296875 -9.550781 3.722656 -9.945312 4.199219 -10.210938 C 4.675781 -10.472656 5.25 -10.605469 5.929688 -10.605469 C 6.8125 -10.605469 7.59375 -10.378906 8.273438 -9.921875 C 8.949219 -9.464844 9.460938 -8.824219 9.804688 -7.992188 C 10.148438 -7.164062 10.320312 -6.253906 10.320312 -5.265625 C 10.320312 -4.203125 10.132812 -3.246094 9.75 -2.398438 C 9.371094 -1.546875 8.816406 -0.898438 8.089844 -0.445312 C 7.363281 0.0078125 6.601562 0.234375 5.800781 0.234375 C 5.214844 0.234375 4.6875 0.109375 4.222656 -0.136719 C 3.757812 -0.382812 3.375 -0.695312 3.078125 -1.074219 L 3.078125 3.976562 L 1.320312 3.976562 M 2.910156 -5.125 C 2.910156 -3.792969 3.179688 -2.804688 3.71875 -2.167969 C 4.261719 -1.53125 4.914062 -1.210938 5.683594 -1.210938 C 6.464844 -1.210938 7.132812 -1.542969 7.691406 -2.203125 C 8.246094 -2.863281 8.523438 -3.886719 8.523438 -5.273438 C 8.523438 -6.59375 8.253906 -7.585938 7.710938 -8.242188 C 7.167969 -8.898438 6.515625 -9.226562 5.761719 -9.226562 C 5.011719 -9.226562 4.351562 -8.878906 3.773438 -8.179688 C 3.199219 -7.480469 2.910156 -6.460938 2.910156 -5.125 Z M 2.910156 -5.125 "/>
</g>
<g id="glyph-0-5">
<path d="M 1.242188 3.992188 L 1.046875 2.34375 C 1.429688 2.449219 1.765625 2.5 2.050781 2.5 C 2.441406 2.5 2.753906 2.433594 2.988281 2.304688 C 3.222656 2.175781 3.414062 1.992188 3.5625 1.757812 C 3.675781 1.582031 3.855469 1.144531 4.101562 0.449219 C 4.132812 0.351562 4.1875 0.207031 4.257812 0.0195312 L 0.320312 -10.371094 L 2.21875 -10.371094 L 4.375 -4.367188 C 4.65625 -3.601562 4.90625 -2.804688 5.125 -1.960938 C 5.328125 -2.769531 5.570312 -3.558594 5.851562 -4.328125 L 8.066406 -10.371094 L 9.824219 -10.371094 L 5.878906 0.175781 C 5.457031 1.316406 5.125 2.101562 4.890625 2.53125 C 4.578125 3.109375 4.222656 3.535156 3.820312 3.804688 C 3.414062 4.074219 2.933594 4.210938 2.375 4.210938 C 2.035156 4.210938 1.65625 4.136719 1.242188 3.992188 Z M 1.242188 3.992188 "/>
</g>
<g id="glyph-0-6">
</g>
<g id="glyph-0-7">
<path d="M 0.617188 -3.09375 L 2.351562 -3.367188 C 2.453125 -2.671875 2.722656 -2.140625 3.167969 -1.765625 C 3.613281 -1.398438 4.238281 -1.210938 5.039062 -1.210938 C 5.847656 -1.210938 6.445312 -1.375 6.835938 -1.703125 C 7.226562 -2.03125 7.421875 -2.417969 7.421875 -2.859375 C 7.421875 -3.257812 7.25 -3.570312 6.90625 -3.796875 C 6.664062 -3.953125 6.0625 -4.152344 5.109375 -4.394531 C 3.820312 -4.71875 2.925781 -5 2.425781 -5.238281 C 1.929688 -5.476562 1.550781 -5.804688 1.292969 -6.226562 C 1.035156 -6.644531 0.90625 -7.109375 0.90625 -7.617188 C 0.90625 -8.078125 1.015625 -8.507812 1.226562 -8.902344 C 1.4375 -9.296875 1.726562 -9.621094 2.089844 -9.882812 C 2.363281 -10.085938 2.734375 -10.253906 3.207031 -10.394531 C 3.679688 -10.535156 4.1875 -10.605469 4.726562 -10.605469 C 5.539062 -10.605469 6.253906 -10.488281 6.871094 -10.253906 C 7.484375 -10.019531 7.9375 -9.703125 8.234375 -9.300781 C 8.523438 -8.902344 8.726562 -8.367188 8.835938 -7.695312 L 7.117188 -7.460938 C 7.039062 -7.996094 6.816406 -8.410156 6.441406 -8.710938 C 6.066406 -9.011719 5.539062 -9.160156 4.851562 -9.160156 C 4.046875 -9.160156 3.46875 -9.027344 3.125 -8.757812 C 2.78125 -8.492188 2.609375 -8.179688 2.609375 -7.820312 C 2.609375 -7.59375 2.679688 -7.390625 2.820312 -7.207031 C 2.964844 -7.019531 3.191406 -6.863281 3.496094 -6.738281 C 3.671875 -6.671875 4.1875 -6.523438 5.046875 -6.289062 C 6.292969 -5.957031 7.160156 -5.683594 7.652344 -5.472656 C 8.144531 -5.261719 8.527344 -4.953125 8.808594 -4.550781 C 9.089844 -4.148438 9.226562 -3.644531 9.226562 -3.046875 C 9.226562 -2.460938 9.058594 -1.910156 8.714844 -1.390625 C 8.375 -0.875 7.878906 -0.472656 7.234375 -0.191406 C 6.59375 0.09375 5.863281 0.234375 5.046875 0.234375 C 3.703125 0.234375 2.675781 -0.046875 1.96875 -0.605469 C 1.261719 -1.164062 0.8125 -1.996094 0.617188 -3.09375 Z M 0.617188 -3.09375 "/>
</g>
<g id="glyph-0-8">
<path d="M 8.417969 -3.339844 L 10.234375 -3.117188 C 9.949219 -2.054688 9.417969 -1.230469 8.640625 -0.644531 C 7.867188 -0.0585938 6.878906 0.234375 5.671875 0.234375 C 4.15625 0.234375 2.953125 -0.234375 2.066406 -1.167969 C 1.175781 -2.101562 0.734375 -3.410156 0.734375 -5.097656 C 0.734375 -6.84375 1.179688 -8.195312 2.078125 -9.160156 C 2.976562 -10.125 4.144531 -10.605469 5.578125 -10.605469 C 6.960938 -10.605469 8.09375 -10.132812 8.976562 -9.1875 C 9.851562 -8.246094 10.292969 -6.917969 10.292969 -5.203125 C 10.292969 -5.101562 10.289062 -4.945312 10.28125 -4.734375 L 2.546875 -4.734375 C 2.613281 -3.597656 2.9375 -2.726562 3.515625 -2.117188 C 4.09375 -1.515625 4.816406 -1.210938 5.683594 -1.210938 C 6.328125 -1.210938 6.878906 -1.378906 7.335938 -1.71875 C 7.789062 -2.058594 8.152344 -2.597656 8.417969 -3.339844 M 2.648438 -6.179688 L 8.4375 -6.179688 C 8.359375 -7.054688 8.136719 -7.707031 7.773438 -8.144531 C 7.214844 -8.820312 6.488281 -9.160156 5.59375 -9.160156 C 4.789062 -9.160156 4.109375 -8.890625 3.558594 -8.351562 C 3.007812 -7.808594 2.703125 -7.085938 2.648438 -6.179688 Z M 2.648438 -6.179688 "/>
</g>
<g id="glyph-0-9">
<path d="M 1.328125 -12.296875 L 1.328125 -14.316406 L 3.085938 -14.316406 L 3.085938 -12.296875 L 1.328125 -12.296875 M 1.328125 0 L 1.328125 -10.371094 L 3.085938 -10.371094 L 3.085938 0 Z M 1.328125 0 "/>
</g>
<g id="glyph-0-10">
<path d="M 4.679688 4.210938 C 3.707031 2.984375 2.886719 1.550781 2.21875 -0.0859375 C 1.546875 -1.726562 1.210938 -3.429688 1.210938 -5.1875 C 1.210938 -6.734375 1.460938 -8.21875 1.960938 -9.640625 C 2.546875 -11.285156 3.453125 -12.925781 4.679688 -14.5625 L 5.9375 -14.5625 C 5.148438 -13.207031 4.628906 -12.238281 4.375 -11.660156 C 3.976562 -10.761719 3.664062 -9.824219 3.4375 -8.847656 C 3.15625 -7.628906 3.015625 -6.40625 3.015625 -5.175781 C 3.015625 -2.042969 3.992188 1.085938 5.9375 4.210938 Z M 4.679688 4.210938 "/>
</g>
<g id="glyph-0-11">
<path d="M 1.542969 0 L 1.542969 -14.316406 L 6.476562 -14.316406 C 7.585938 -14.316406 8.4375 -14.25 9.023438 -14.109375 C 9.84375 -13.921875 10.542969 -13.582031 11.125 -13.085938 C 11.878906 -12.449219 12.441406 -11.632812 12.816406 -10.640625 C 13.191406 -9.648438 13.378906 -8.511719 13.378906 -7.234375 C 13.378906 -6.148438 13.25 -5.1875 13 -4.34375 C 12.742188 -3.507812 12.417969 -2.8125 12.023438 -2.261719 C 11.625 -1.710938 11.191406 -1.277344 10.71875 -0.960938 C 10.246094 -0.644531 9.675781 -0.40625 9.007812 -0.242188 C 8.339844 -0.0820312 7.574219 0 6.710938 0 L 1.542969 0 M 3.4375 -1.6875 L 6.492188 -1.6875 C 7.4375 -1.6875 8.179688 -1.777344 8.714844 -1.953125 C 9.253906 -2.128906 9.679688 -2.375 10 -2.695312 C 10.449219 -3.144531 10.800781 -3.75 11.050781 -4.507812 C 11.300781 -5.265625 11.425781 -6.183594 11.425781 -7.265625 C 11.425781 -8.761719 11.179688 -9.914062 10.6875 -10.71875 C 10.195312 -11.523438 9.601562 -12.0625 8.898438 -12.335938 C 8.390625 -12.53125 7.570312 -12.625 6.445312 -12.625 L 3.4375 -12.625 Z M 3.4375 -1.6875 "/>
</g>
<g id="glyph-0-12">
<path d="M 1.464844 0 L 1.464844 -14.316406 L 6.835938 -14.316406 C 7.929688 -14.316406 8.808594 -14.171875 9.46875 -13.882812 C 10.128906 -13.59375 10.644531 -13.144531 11.019531 -12.542969 C 11.394531 -11.941406 11.582031 -11.3125 11.582031 -10.65625 C 11.582031 -10.042969 11.414062 -9.464844 11.085938 -8.925781 C 10.75 -8.386719 10.25 -7.949219 9.578125 -7.617188 C 10.445312 -7.363281 11.113281 -6.929688 11.578125 -6.320312 C 12.042969 -5.707031 12.273438 -4.984375 12.273438 -4.148438 C 12.273438 -3.480469 12.132812 -2.855469 11.851562 -2.28125 C 11.566406 -1.703125 11.21875 -1.257812 10.800781 -0.945312 C 10.382812 -0.632812 9.863281 -0.398438 9.234375 -0.238281 C 8.605469 -0.078125 7.835938 0 6.921875 0 L 1.464844 0 M 3.359375 -8.300781 L 6.453125 -8.300781 C 7.296875 -8.300781 7.898438 -8.355469 8.261719 -8.46875 C 8.742188 -8.609375 9.105469 -8.847656 9.351562 -9.179688 C 9.59375 -9.511719 9.71875 -9.929688 9.71875 -10.429688 C 9.71875 -10.90625 9.601562 -11.324219 9.375 -11.683594 C 9.148438 -12.046875 8.820312 -12.292969 8.398438 -12.425781 C 7.976562 -12.558594 7.25 -12.625 6.21875 -12.625 L 3.359375 -12.625 L 3.359375 -8.300781 M 3.359375 -1.6875 L 6.921875 -1.6875 C 7.535156 -1.6875 7.964844 -1.710938 8.210938 -1.757812 C 8.648438 -1.835938 9.015625 -1.964844 9.304688 -2.148438 C 9.601562 -2.332031 9.839844 -2.597656 10.03125 -2.945312 C 10.21875 -3.292969 10.3125 -3.695312 10.3125 -4.148438 C 10.3125 -4.683594 10.175781 -5.148438 9.902344 -5.542969 C 9.628906 -5.9375 9.25 -6.210938 8.765625 -6.371094 C 8.28125 -6.53125 7.582031 -6.609375 6.671875 -6.609375 L 3.359375 -6.609375 Z M 3.359375 -1.6875 "/>
</g>
<g id="glyph-0-13">
<path d="M 1.601562 0 L 1.601562 -14.316406 L 3.496094 -14.316406 L 3.496094 -8.4375 L 10.9375 -8.4375 L 10.9375 -14.316406 L 12.832031 -14.316406 L 12.832031 0 L 10.9375 0 L 10.9375 -6.75 L 3.496094 -6.75 L 3.496094 0 Z M 1.601562 0 "/>
</g>
<g id="glyph-0-14">
<path d="M 1.09375 -6.257812 L 1.09375 -7.898438 L 10.578125 -11.90625 L 10.578125 -10.15625 L 3.054688 -7.070312 L 10.578125 -3.953125 L 10.578125 -2.207031 Z M 1.09375 -6.257812 "/>
</g>
<g id="glyph-0-15">
<path d="M 0.839844 -3.78125 L 2.597656 -4.015625 C 2.800781 -3.015625 3.144531 -2.300781 3.628906 -1.859375 C 4.113281 -1.421875 4.703125 -1.199219 5.398438 -1.203125 C 6.226562 -1.199219 6.925781 -1.488281 7.496094 -2.0625 C 8.066406 -2.632812 8.347656 -3.34375 8.351562 -4.1875 C 8.347656 -4.996094 8.085938 -5.664062 7.558594 -6.1875 C 7.03125 -6.710938 6.359375 -6.972656 5.546875 -6.972656 C 5.214844 -6.972656 4.800781 -6.90625 4.304688 -6.777344 L 4.5 -8.320312 C 4.617188 -8.308594 4.714844 -8.300781 4.785156 -8.300781 C 5.535156 -8.300781 6.207031 -8.496094 6.804688 -8.886719 C 7.40625 -9.277344 7.703125 -9.878906 7.703125 -10.695312 C 7.703125 -11.335938 7.488281 -11.871094 7.050781 -12.296875 C 6.613281 -12.71875 6.050781 -12.929688 5.359375 -12.929688 C 4.675781 -12.929688 4.109375 -12.714844 3.652344 -12.285156 C 3.195312 -11.855469 2.902344 -11.210938 2.773438 -10.351562 L 1.015625 -10.664062 C 1.230469 -11.84375 1.71875 -12.753906 2.480469 -13.402344 C 3.242188 -14.050781 4.1875 -14.375 5.320312 -14.375 C 6.101562 -14.375 6.824219 -14.207031 7.480469 -13.871094 C 8.136719 -13.535156 8.640625 -13.078125 8.988281 -12.5 C 9.335938 -11.921875 9.511719 -11.304688 9.511719 -10.65625 C 9.511719 -10.035156 9.34375 -9.472656 9.015625 -8.964844 C 8.679688 -8.457031 8.191406 -8.054688 7.539062 -7.753906 C 8.386719 -7.558594 9.042969 -7.152344 9.511719 -6.539062 C 9.980469 -5.921875 10.214844 -5.152344 10.214844 -4.226562 C 10.214844 -2.976562 9.757812 -1.917969 8.847656 -1.050781 C 7.9375 -0.179688 6.785156 0.253906 5.390625 0.253906 C 4.132812 0.253906 3.089844 -0.121094 2.261719 -0.867188 C 1.429688 -1.617188 0.957031 -2.585938 0.839844 -3.78125 Z M 0.839844 -3.78125 "/>
</g>
<g id="glyph-0-16">
<path d="M 0.828125 -7.0625 C 0.828125 -8.753906 1.003906 -10.117188 1.351562 -11.148438 C 1.699219 -12.179688 2.21875 -12.976562 2.90625 -13.535156 C 3.59375 -14.09375 4.457031 -14.375 5.5 -14.375 C 6.265625 -14.375 6.941406 -14.21875 7.519531 -13.910156 C 8.097656 -13.601562 8.578125 -13.15625 8.953125 -12.574219 C 9.332031 -11.992188 9.628906 -11.28125 9.84375 -10.445312 C 10.058594 -9.609375 10.164062 -8.480469 10.164062 -7.0625 C 10.164062 -5.382812 9.992188 -4.023438 9.648438 -2.992188 C 9.304688 -1.960938 8.789062 -1.164062 8.101562 -0.601562 C 7.414062 -0.0390625 6.546875 0.242188 5.5 0.242188 C 4.117188 0.242188 3.035156 -0.25 2.246094 -1.242188 C 1.300781 -2.429688 0.828125 -4.371094 0.828125 -7.0625 M 2.636719 -7.0625 C 2.636719 -4.710938 2.910156 -3.144531 3.460938 -2.367188 C 4.011719 -1.589844 4.691406 -1.199219 5.5 -1.203125 C 6.304688 -1.199219 6.984375 -1.59375 7.535156 -2.375 C 8.085938 -3.15625 8.359375 -4.71875 8.359375 -7.0625 C 8.359375 -9.417969 8.085938 -10.984375 7.535156 -11.757812 C 6.984375 -12.53125 6.296875 -12.921875 5.476562 -12.921875 C 4.671875 -12.921875 4.027344 -12.578125 3.546875 -11.894531 C 2.9375 -11.023438 2.636719 -9.410156 2.636719 -7.0625 Z M 2.636719 -7.0625 "/>
</g>
<g id="glyph-0-17">
<path d="M 2.46875 4.210938 L 1.210938 4.210938 C 3.15625 1.085938 4.128906 -2.042969 4.132812 -5.175781 C 4.128906 -6.398438 3.992188 -7.613281 3.710938 -8.820312 C 3.488281 -9.792969 3.179688 -10.734375 2.78125 -11.632812 C 2.53125 -12.21875 2.003906 -13.195312 1.210938 -14.5625 L 2.46875 -14.5625 C 3.695312 -12.925781 4.597656 -11.285156 5.1875 -9.640625 C 5.6875 -8.21875 5.9375 -6.734375 5.9375 -5.1875 C 5.9375 -3.429688 5.601562 -1.726562 4.925781 -0.0859375 C 4.253906 1.550781 3.433594 2.984375 2.46875 4.210938 Z M 2.46875 4.210938 "/>
</g>
<g id="glyph-0-18">
<path d="M 10.578125 -6.257812 L 1.09375 -2.207031 L 1.09375 -3.953125 L 8.601562 -7.070312 L 1.09375 -10.15625 L 1.09375 -11.90625 L 10.578125 -7.898438 Z M 10.578125 -6.257812 "/>
</g>
<g id="glyph-0-19">
<path d="M 10.566406 -8.417969 L 1.113281 -8.417969 L 1.113281 -10.058594 L 10.566406 -10.058594 L 10.566406 -8.417969 M 10.566406 -4.070312 L 1.113281 -4.070312 L 1.113281 -5.710938 L 10.566406 -5.710938 Z M 10.566406 -4.070312 "/>
</g>
<g id="glyph-0-20">
<path d="M 0.632812 -4.296875 L 0.632812 -6.0625 L 6.035156 -6.0625 L 6.035156 -4.296875 Z M 0.632812 -4.296875 "/>
</g>
<g id="glyph-0-21">
<path d="M 7.453125 0 L 5.695312 0 L 5.695312 -11.203125 C 5.269531 -10.796875 4.714844 -10.394531 4.027344 -9.992188 C 3.339844 -9.585938 2.726562 -9.285156 2.179688 -9.082031 L 2.179688 -10.78125 C 3.160156 -11.242188 4.019531 -11.804688 4.757812 -12.460938 C 5.492188 -13.117188 6.011719 -13.757812 6.320312 -14.375 L 7.453125 -14.375 Z M 7.453125 0 "/>
</g>
<g id="glyph-0-22">
<path d="M 10.070312 -1.6875 L 10.070312 0 L 0.605469 0 C 0.59375 -0.421875 0.660156 -0.828125 0.8125 -1.21875 C 1.050781 -1.867188 1.4375 -2.5 1.96875 -3.125 C 2.5 -3.75 3.265625 -4.472656 4.265625 -5.292969 C 5.824219 -6.570312 6.875 -7.578125 7.421875 -8.324219 C 7.96875 -9.070312 8.242188 -9.773438 8.242188 -10.4375 C 8.242188 -11.136719 7.992188 -11.722656 7.496094 -12.203125 C 6.996094 -12.679688 6.347656 -12.921875 5.546875 -12.921875 C 4.699219 -12.921875 4.023438 -12.664062 3.515625 -12.15625 C 3.007812 -11.648438 2.75 -10.945312 2.742188 -10.046875 L 0.9375 -10.234375 C 1.0625 -11.582031 1.527344 -12.609375 2.335938 -13.316406 C 3.140625 -14.023438 4.226562 -14.375 5.585938 -14.375 C 6.960938 -14.375 8.046875 -13.992188 8.847656 -13.234375 C 9.648438 -12.46875 10.046875 -11.527344 10.046875 -10.398438 C 10.046875 -9.828125 9.929688 -9.265625 9.695312 -8.710938 C 9.460938 -8.15625 9.074219 -7.574219 8.53125 -6.960938 C 7.988281 -6.351562 7.082031 -5.511719 5.820312 -4.445312 C 4.765625 -3.558594 4.089844 -2.957031 3.789062 -2.640625 C 3.488281 -2.324219 3.242188 -2.007812 3.046875 -1.6875 Z M 10.070312 -1.6875 "/>
</g>
<g id="glyph-0-23">
<path d="M 6.464844 0 L 6.464844 -3.429688 L 0.253906 -3.429688 L 0.253906 -5.039062 L 6.789062 -14.316406 L 8.222656 -14.316406 L 8.222656 -5.039062 L 10.15625 -5.039062 L 10.15625 -3.429688 L 8.222656 -3.429688 L 8.222656 0 L 6.464844 0 M 6.464844 -5.039062 L 6.464844 -11.492188 L 1.984375 -5.039062 Z M 6.464844 -5.039062 "/>
</g>
<g id="glyph-0-24">
<path d="M 0.828125 -3.75 L 2.675781 -3.90625 C 2.8125 -3.007812 3.128906 -2.332031 3.628906 -1.878906 C 4.125 -1.425781 4.726562 -1.199219 5.429688 -1.203125 C 6.277344 -1.199219 6.992188 -1.519531 7.578125 -2.15625 C 8.164062 -2.796875 8.457031 -3.640625 8.457031 -4.695312 C 8.457031 -5.699219 8.175781 -6.492188 7.613281 -7.070312 C 7.050781 -7.648438 6.3125 -7.9375 5.398438 -7.9375 C 4.835938 -7.9375 4.324219 -7.8125 3.867188 -7.554688 C 3.410156 -7.296875 3.054688 -6.960938 2.792969 -6.554688 L 1.140625 -6.765625 L 2.53125 -14.121094 L 9.648438 -14.121094 L 9.648438 -12.441406 L 3.9375 -12.441406 L 3.164062 -8.59375 C 4.023438 -9.191406 4.925781 -9.492188 5.867188 -9.492188 C 7.117188 -9.492188 8.171875 -9.058594 9.03125 -8.195312 C 9.890625 -7.328125 10.320312 -6.214844 10.320312 -4.851562 C 10.320312 -3.558594 9.945312 -2.4375 9.1875 -1.492188 C 8.273438 -0.335938 7.019531 0.242188 5.429688 0.242188 C 4.128906 0.242188 3.066406 -0.121094 2.242188 -0.851562 C 1.417969 -1.578125 0.945312 -2.546875 0.828125 -3.75 Z M 0.828125 -3.75 "/>
</g>
<g id="glyph-1-0">
<path d="M 7.140625 1.90625 C 5.945312 0.828125 4.96875 -0.480469 4.210938 -2.03125 C 3.273438 -3.9375 2.804688 -5.796875 2.804688 -7.609375 C 2.804688 -9.65625 3.390625 -11.746094 4.570312 -13.867188 C 5.285156 -15.144531 6.140625 -16.21875 7.140625 -17.101562 L 8.601562 -17.101562 C 7.726562 -16.097656 7.023438 -15.171875 6.492188 -14.328125 C 5.140625 -12.164062 4.460938 -9.917969 4.460938 -7.585938 C 4.460938 -5.386719 5.070312 -3.265625 6.28125 -1.21875 C 6.84375 -0.257812 7.621094 0.785156 8.601562 1.90625 Z M 7.140625 1.90625 "/>
</g>
<g id="glyph-1-1">
<path d="M 6.660156 -15.78125 L 8.546875 -15.78125 L 14.960938 0.5 L 12.921875 0.5 L 11.101562 -4.277344 L 4.101562 -4.277344 L 2.285156 0.5 L 0.242188 0.5 L 6.660156 -15.78125 M 10.566406 -5.820312 L 8.867188 -10.304688 C 8.25 -11.890625 7.839844 -13.089844 7.648438 -13.898438 L 7.570312 -13.898438 C 7.375 -13.132812 6.964844 -11.9375 6.347656 -10.304688 L 4.648438 -5.820312 Z M 10.566406 -5.820312 "/>
</g>
<g id="glyph-1-2">
<path d="M 1.398438 1.90625 C 2.269531 0.902344 2.972656 -0.0273438 3.507812 -0.878906 C 4.859375 -3.035156 5.539062 -5.269531 5.539062 -7.585938 C 5.539062 -9.800781 4.929688 -11.929688 3.71875 -13.976562 C 3.15625 -14.925781 2.378906 -15.96875 1.398438 -17.101562 L 2.859375 -17.101562 C 4.054688 -16.019531 5.03125 -14.707031 5.789062 -13.164062 C 6.726562 -11.257812 7.195312 -9.402344 7.195312 -7.597656 C 7.195312 -5.546875 6.605469 -3.460938 5.421875 -1.335938 C 4.710938 -0.0546875 3.859375 1.023438 2.859375 1.90625 Z M 1.398438 1.90625 "/>
</g>
<g id="glyph-1-3">
<path d="M 10.664062 -14.296875 L 13 -14.296875 C 13.609375 -15.15625 14.136719 -16.027344 14.578125 -16.914062 L 16.09375 -16.398438 C 15.625 -15.617188 15.148438 -14.914062 14.65625 -14.296875 L 18.796875 -14.296875 L 18.796875 -10.5 L 17.234375 -10.5 L 17.234375 -13.054688 L 2.703125 -13.054688 L 2.703125 -10.5 L 1.140625 -10.5 L 1.140625 -14.296875 L 5.164062 -14.296875 C 4.742188 -15.011719 4.265625 -15.679688 3.742188 -16.296875 L 5.125 -16.875 C 5.707031 -16.171875 6.257812 -15.3125 6.777344 -14.296875 L 9.160156 -14.296875 L 9.160156 -17.101562 L 10.664062 -17.101562 L 10.664062 -14.296875 M 15.898438 -11.621094 L 15.898438 -7.351562 L 10.703125 -7.351562 L 10.703125 -5.59375 L 17.960938 -5.59375 L 17.960938 -1.125 C 17.957031 -0.589844 17.824219 -0.207031 17.558594 0.0195312 C 17.292969 0.246094 16.789062 0.359375 16.054688 0.359375 C 15.488281 0.359375 14.691406 0.316406 13.664062 0.226562 L 13.398438 -1.21875 C 14.34375 -1.085938 15.152344 -1.015625 15.828125 -1.015625 C 16.097656 -1.015625 16.265625 -1.0625 16.335938 -1.152344 C 16.390625 -1.222656 16.414062 -1.335938 16.414062 -1.492188 L 16.414062 -4.335938 L 10.703125 -4.335938 L 10.703125 1.90625 L 9.160156 1.90625 L 9.160156 -4.335938 L 3.828125 -4.335938 L 3.828125 0.460938 L 2.265625 0.460938 L 2.265625 -5.59375 L 9.160156 -5.59375 L 9.160156 -7.351562 L 4.003906 -7.351562 L 4.003906 -11.621094 L 15.898438 -11.621094 M 5.507812 -10.476562 L 5.507812 -8.476562 L 14.355469 -8.476562 L 14.355469 -10.476562 Z M 5.507812 -10.476562 "/>
</g>
<g id="glyph-1-4">
<path d="M 3.203125 -9.835938 C 2.402344 -11.011719 1.507812 -12.121094 0.515625 -13.164062 L 1.414062 -14.199219 C 1.703125 -13.90625 1.914062 -13.679688 2.050781 -13.523438 C 2.824219 -14.617188 3.535156 -15.8125 4.179688 -17.101562 L 5.5 -16.375 C 4.652344 -14.957031 3.78125 -13.679688 2.882812 -12.546875 C 3.160156 -12.203125 3.484375 -11.769531 3.859375 -11.25 L 4.070312 -10.945312 C 4.917969 -12.085938 5.773438 -13.328125 6.632812 -14.679688 L 7.8125 -13.820312 C 6.21875 -11.488281 4.726562 -9.601562 3.339844 -8.15625 C 4.503906 -8.21875 5.589844 -8.3125 6.59375 -8.4375 C 6.421875 -8.917969 6.21875 -9.441406 5.976562 -10 L 7.070312 -10.515625 C 7.566406 -9.457031 8.035156 -8.183594 8.476562 -6.699219 L 7.296875 -6.035156 C 7.203125 -6.417969 7.101562 -6.8125 6.984375 -7.21875 L 6.945312 -7.34375 C 6.683594 -7.296875 6.234375 -7.226562 5.59375 -7.128906 L 5.253906 -7.078125 L 5.253906 1.90625 L 3.820312 1.90625 L 3.820312 -6.894531 C 3.703125 -6.886719 3.503906 -6.867188 3.222656 -6.835938 C 2.527344 -6.75 1.707031 -6.679688 0.761719 -6.621094 L 0.460938 -8 C 0.710938 -8.011719 0.933594 -8.023438 1.125 -8.039062 C 1.28125 -8.042969 1.46875 -8.054688 1.6875 -8.066406 C 2.164062 -8.574219 2.667969 -9.164062 3.203125 -9.835938 M 14.601562 -8.523438 C 14.613281 -8.484375 14.632812 -8.421875 14.65625 -8.328125 C 14.945312 -7.28125 15.316406 -6.320312 15.773438 -5.4375 C 16.695312 -6.28125 17.5 -7.148438 18.183594 -8.046875 L 19.296875 -7.0625 C 18.507812 -6.167969 17.546875 -5.253906 16.40625 -4.316406 C 17.246094 -3.027344 18.34375 -1.847656 19.695312 -0.78125 L 18.757812 0.578125 C 17.476562 -0.609375 16.488281 -1.765625 15.789062 -2.890625 C 15.335938 -3.625 14.929688 -4.445312 14.578125 -5.351562 L 14.578125 0.410156 C 14.578125 0.964844 14.414062 1.351562 14.082031 1.570312 C 13.816406 1.75 13.378906 1.835938 12.773438 1.835938 C 12.3125 1.835938 11.746094 1.804688 11.074219 1.738281 L 10.773438 0.292969 C 11.578125 0.417969 12.199219 0.476562 12.636719 0.476562 C 12.863281 0.476562 13.003906 0.421875 13.054688 0.304688 C 13.09375 0.21875 13.117188 0.09375 13.117188 -0.0703125 L 13.117188 -8.523438 L 8.171875 -8.523438 L 8.171875 -9.84375 L 15.15625 -9.84375 L 15.28125 -11.894531 L 9.8125 -11.894531 L 9.8125 -13.117188 L 15.359375 -13.117188 L 15.476562 -15.078125 L 9.257812 -15.078125 L 9.257812 -16.335938 L 17.023438 -16.335938 L 16.640625 -9.84375 L 19.382812 -9.84375 L 19.382812 -8.523438 L 14.601562 -8.523438 M 0.554688 -0.460938 C 0.945312 -1.566406 1.238281 -3.070312 1.425781 -4.96875 L 1.476562 -5.539062 L 2.804688 -5.382812 C 2.652344 -3.070312 2.34375 -1.199219 1.875 0.226562 L 0.554688 -0.460938 M 6.835938 -1.855469 C 6.621094 -3.222656 6.359375 -4.390625 6.054688 -5.359375 L 7.234375 -5.761719 C 7.632812 -4.699219 7.925781 -3.605469 8.117188 -2.480469 L 6.835938 -1.855469 M 11.101562 -4.277344 C 10.40625 -5.285156 9.652344 -6.207031 8.835938 -7.039062 L 9.902344 -7.859375 C 10.730469 -7.0625 11.5 -6.1875 12.21875 -5.242188 L 11.101562 -4.277344 M 7.765625 -1.125 C 9.207031 -1.804688 10.679688 -2.71875 12.179688 -3.859375 L 12.597656 -2.636719 C 11.515625 -1.667969 10.164062 -0.722656 8.535156 0.195312 Z M 7.765625 -1.125 "/>
</g>
<g id="glyph-1-5">
<path d="M 11.320312 -14.140625 L 19.03125 -14.140625 L 19.03125 -12.703125 L 3.703125 -12.703125 L 3.703125 -9.328125 C 3.703125 -6.421875 3.574219 -4.1875 3.320312 -2.617188 C 3.078125 -1.074219 2.605469 0.363281 1.894531 1.699219 L 0.59375 0.539062 C 1.265625 -0.828125 1.691406 -2.390625 1.875 -4.148438 C 2.011719 -5.425781 2.078125 -7.152344 2.078125 -9.328125 L 2.078125 -14.140625 L 9.695312 -14.140625 L 9.695312 -17.101562 L 11.320312 -17.101562 L 11.320312 -14.140625 M 5.59375 -0.65625 L 5.722656 -0.898438 C 7.234375 -3.917969 8.578125 -7.414062 9.757812 -11.375 L 11.347656 -10.9375 C 10.046875 -6.804688 8.695312 -3.414062 7.296875 -0.773438 L 9.34375 -0.9375 C 11.726562 -1.121094 13.945312 -1.359375 15.996094 -1.648438 C 15.164062 -3.132812 14.289062 -4.578125 13.367188 -5.976562 L 14.734375 -6.679688 C 16.257812 -4.519531 17.730469 -2.042969 19.148438 0.742188 L 17.734375 1.71875 C 17.441406 1.09375 17.085938 0.378906 16.671875 -0.421875 C 16.597656 -0.40625 16.519531 -0.390625 16.4375 -0.371094 C 13.421875 0.183594 9.292969 0.652344 4.054688 1.035156 L 3.535156 -0.539062 C 3.632812 -0.542969 4.320312 -0.582031 5.59375 -0.65625 Z M 5.59375 -0.65625 "/>
</g>
<g id="glyph-1-6">
<path d="M 12.460938 -3.054688 C 14.191406 -1.898438 16.570312 -0.910156 19.601562 -0.0976562 L 18.664062 1.242188 C 15.210938 0.140625 12.558594 -1.257812 10.703125 -2.960938 L 10.703125 1.90625 L 9.160156 1.90625 L 9.160156 -2.910156 C 7.285156 -0.929688 4.671875 0.546875 1.320312 1.523438 L 0.4375 0.304688 C 3.347656 -0.484375 5.730469 -1.605469 7.578125 -3.054688 L 0.710938 -3.054688 L 0.710938 -4.296875 L 9.160156 -4.296875 L 9.160156 -5.722656 L 3.859375 -5.722656 L 3.859375 -10.476562 L 0.5 -10.476562 L 0.5 -11.679688 L 3.859375 -11.679688 L 3.859375 -13.078125 L 5.398438 -13.078125 L 5.398438 -11.679688 L 9.023438 -11.679688 L 9.023438 -13.320312 L 10.5 -13.320312 L 10.5 -11.679688 L 14.601562 -11.679688 L 14.601562 -13.164062 L 16.140625 -13.164062 L 16.140625 -11.679688 L 19.5 -11.679688 L 19.5 -10.476562 L 16.140625 -10.476562 L 16.140625 -8.039062 L 9.023438 -8.039062 L 9.023438 -10.476562 L 5.398438 -10.476562 L 5.398438 -6.945312 L 17.820312 -6.945312 L 17.820312 -5.722656 L 10.703125 -5.722656 L 10.703125 -4.296875 L 19.328125 -4.296875 L 19.328125 -3.054688 L 12.460938 -3.054688 M 14.601562 -10.476562 L 10.5 -10.476562 L 10.5 -9.160156 L 14.601562 -9.160156 L 14.601562 -10.476562 M 6.085938 -15.644531 L 6.085938 -17.101562 L 7.617188 -17.101562 L 7.617188 -15.644531 L 12.257812 -15.644531 L 12.257812 -17.101562 L 13.835938 -17.101562 L 13.835938 -15.644531 L 19.003906 -15.644531 L 19.003906 -14.460938 L 13.835938 -14.460938 L 13.835938 -13.027344 L 12.257812 -13.027344 L 12.257812 -14.460938 L 7.617188 -14.460938 L 7.617188 -13.027344 L 6.085938 -13.027344 L 6.085938 -14.460938 L 0.976562 -14.460938 L 0.976562 -15.644531 Z M 6.085938 -15.644531 "/>
</g>
<g id="glyph-1-7">
<path d="M 2.988281 -7.949219 L 2.929688 -7.742188 C 2.410156 -5.863281 1.753906 -4.183594 0.96875 -2.703125 L 0.242188 -4.304688 C 1.410156 -6.398438 2.269531 -8.769531 2.820312 -11.425781 L 0.488281 -11.425781 L 0.488281 -12.820312 L 2.988281 -12.820312 L 2.988281 -17.101562 L 4.40625 -17.101562 L 4.40625 -12.820312 L 5.9375 -12.820312 L 5.9375 -11.425781 L 4.40625 -11.425781 L 4.40625 -9.570312 C 5.140625 -8.964844 5.839844 -8.3125 6.503906 -7.609375 L 5.761719 -6.179688 C 5.351562 -6.789062 4.898438 -7.371094 4.40625 -7.929688 L 4.40625 1.894531 L 2.988281 1.894531 L 2.988281 -7.949219 M 9.042969 -14.882812 L 9.042969 -17.101562 L 10.460938 -17.101562 L 10.460938 -14.882812 L 13.476562 -14.882812 L 13.476562 -13.601562 L 10.460938 -13.601562 L 10.460938 -11.835938 L 13.039062 -11.835938 L 13.039062 -10.617188 L 6.398438 -10.617188 L 6.398438 -11.835938 L 9.042969 -11.835938 L 9.042969 -13.601562 L 6.015625 -13.601562 L 6.015625 -14.882812 L 9.042969 -14.882812 M 12.804688 -9.179688 L 12.804688 -4.902344 L 6.640625 -4.902344 L 6.640625 -9.179688 L 12.804688 -9.179688 M 8 -7.976562 L 8 -6.085938 L 11.464844 -6.085938 L 11.464844 -7.976562 L 8 -7.976562 M 10.195312 -1.101562 C 10.632812 -2.308594 10.960938 -3.472656 11.179688 -4.601562 L 12.597656 -4.21875 C 12.277344 -3.175781 11.945312 -2.246094 11.59375 -1.425781 C 12.085938 -1.535156 12.84375 -1.726562 13.859375 -2 L 13.914062 -0.722656 C 11.578125 -0.0078125 8.898438 0.632812 5.878906 1.203125 L 5.398438 -0.175781 C 7.15625 -0.46875 8.757812 -0.777344 10.195312 -1.101562 M 16.632812 -12.617188 L 16.632812 -16.914062 L 18.066406 -16.914062 L 18.066406 -12.617188 L 19.5 -12.617188 L 19.5 -11.21875 L 18.066406 -11.21875 L 18.066406 0.242188 C 18.066406 0.992188 17.859375 1.457031 17.441406 1.640625 C 17.199219 1.75 16.789062 1.804688 16.210938 1.804688 C 15.683594 1.804688 15.113281 1.765625 14.5 1.679688 L 14.1875 0.226562 C 15.125 0.316406 15.792969 0.359375 16.191406 0.359375 C 16.40625 0.359375 16.535156 0.304688 16.582031 0.1875 C 16.613281 0.109375 16.632812 -0.0195312 16.632812 -0.195312 L 16.632812 -11.21875 L 13.585938 -11.21875 L 13.585938 -12.617188 L 16.632812 -12.617188 M 7.65625 -0.996094 C 7.421875 -2.160156 7.136719 -3.183594 6.796875 -4.0625 L 8.039062 -4.523438 C 8.402344 -3.585938 8.71875 -2.554688 8.984375 -1.4375 L 7.65625 -0.996094 M 14.84375 -3.457031 C 14.386719 -5.703125 13.914062 -7.492188 13.417969 -8.820312 L 14.5625 -9.5 C 15.171875 -7.789062 15.679688 -6.003906 16.085938 -4.140625 Z M 14.84375 -3.457031 "/>
</g>
<g id="glyph-1-8">
<path d="M 5.304688 -2.335938 C 5.875 -1.742188 6.53125 -1.257812 7.265625 -0.890625 C 8.410156 -0.308594 9.984375 -0.0195312 11.984375 -0.0195312 L 19.65625 -0.0195312 C 19.46875 0.363281 19.304688 0.824219 19.160156 1.359375 L 11.945312 1.359375 C 9.761719 1.359375 8.054688 1.050781 6.816406 0.4375 C 6.074219 0.0703125 5.359375 -0.476562 4.667969 -1.203125 C 3.554688 0.0742188 2.46875 1.105469 1.414062 1.894531 L 0.5 0.476562 C 1.558594 -0.183594 2.652344 -1.019531 3.78125 -2.023438 L 3.78125 -7.15625 L 0.539062 -7.15625 L 0.539062 -8.515625 L 5.304688 -8.515625 L 5.304688 -2.335938 M 8.195312 -15.15625 C 8.421875 -15.175781 8.667969 -15.195312 8.9375 -15.214844 C 11.859375 -15.457031 14.523438 -15.964844 16.933594 -16.738281 L 18.054688 -15.515625 C 15.667969 -14.800781 12.894531 -14.285156 9.734375 -13.964844 L 9.734375 -10.976562 L 19.21875 -10.976562 L 19.21875 -9.601562 L 15.632812 -9.601562 L 15.632812 -0.917969 L 14.070312 -0.917969 L 14.070312 -9.601562 L 9.734375 -9.601562 C 9.734375 -7.796875 9.65625 -6.324219 9.5 -5.1875 C 9.292969 -3.65625 8.835938 -2.308594 8.132812 -1.140625 L 6.835938 -2.179688 C 7.472656 -3.285156 7.875 -4.574219 8.039062 -6.046875 C 8.140625 -7.015625 8.195312 -8.390625 8.195312 -10.175781 L 8.195312 -15.15625 M 4.523438 -12.21875 C 3.519531 -13.546875 2.484375 -14.6875 1.414062 -15.644531 L 2.519531 -16.582031 C 3.613281 -15.691406 4.675781 -14.601562 5.710938 -13.320312 Z M 4.523438 -12.21875 "/>
</g>
<g id="glyph-1-9">
<path d="M 12.089844 -6.621094 L 19.5 -6.621094 L 19.5 -5.304688 L 16.816406 -5.304688 C 16.296875 -3.890625 15.597656 -2.679688 14.726562 -1.671875 C 16.160156 -1.007812 17.628906 -0.238281 19.140625 0.632812 L 18.164062 1.894531 C 16.769531 1.042969 15.394531 0.265625 14.03125 -0.429688 L 13.640625 -0.632812 C 12.164062 0.550781 10.066406 1.40625 7.34375 1.933594 L 6.523438 0.59375 C 8.730469 0.347656 10.632812 -0.285156 12.226562 -1.308594 C 11.042969 -1.847656 9.964844 -2.300781 8.992188 -2.664062 L 8.398438 -2.882812 L 8.535156 -3.085938 C 8.953125 -3.703125 9.382812 -4.441406 9.835938 -5.304688 L 6.335938 -5.304688 L 6.335938 -6.621094 L 10.46875 -6.621094 C 10.917969 -7.65625 11.230469 -8.417969 11.40625 -8.90625 L 6.679688 -8.90625 L 6.679688 -10.226562 L 10.03125 -10.226562 C 9.722656 -11.488281 9.40625 -12.527344 9.070312 -13.339844 L 7.257812 -13.339844 L 7.257812 -14.640625 L 12.101562 -14.640625 L 12.101562 -17.101562 L 13.640625 -17.101562 L 13.640625 -14.640625 L 18.679688 -14.640625 L 18.679688 -13.339844 L 16.679688 -13.339844 C 16.414062 -12.285156 16.066406 -11.246094 15.644531 -10.226562 L 19.257812 -10.226562 L 19.257812 -8.90625 L 13 -8.90625 C 12.75 -8.195312 12.449219 -7.433594 12.089844 -6.621094 M 11.476562 -5.304688 C 11.125 -4.59375 10.789062 -3.980469 10.476562 -3.46875 C 11.320312 -3.160156 12.277344 -2.773438 13.359375 -2.304688 C 14.191406 -3.191406 14.8125 -4.1875 15.226562 -5.304688 L 11.476562 -5.304688 M 10.488281 -13.339844 C 10.871094 -12.316406 11.203125 -11.28125 11.476562 -10.226562 L 14.132812 -10.226562 C 14.417969 -10.902344 14.746094 -11.941406 15.117188 -13.339844 L 10.488281 -13.339844 M 6.867188 -8.886719 L 7.078125 -7.585938 C 6.46875 -7.300781 5.742188 -6.984375 4.902344 -6.640625 L 4.902344 0.359375 C 4.902344 0.921875 4.773438 1.316406 4.511719 1.542969 C 4.265625 1.757812 3.867188 1.867188 3.320312 1.867188 C 2.722656 1.867188 2.066406 1.816406 1.359375 1.71875 L 1.101562 0.175781 C 1.78125 0.300781 2.367188 0.359375 2.859375 0.359375 C 3.109375 0.359375 3.261719 0.304688 3.320312 0.195312 C 3.359375 0.117188 3.378906 0 3.378906 -0.15625 L 3.378906 -6.054688 C 3.328125 -6.035156 3.253906 -6.007812 3.164062 -5.976562 C 2.53125 -5.734375 1.765625 -5.472656 0.859375 -5.1875 L 0.382812 -6.660156 C 1.472656 -6.980469 2.429688 -7.273438 3.242188 -7.539062 L 3.378906 -7.585938 L 3.378906 -11.828125 L 0.539062 -11.828125 L 0.539062 -13.242188 L 3.378906 -13.242188 L 3.378906 -17.101562 L 4.902344 -17.101562 L 4.902344 -13.242188 L 6.921875 -13.242188 L 6.921875 -11.828125 L 4.902344 -11.828125 L 4.902344 -8.117188 C 5.292969 -8.265625 5.746094 -8.441406 6.257812 -8.640625 C 6.492188 -8.734375 6.695312 -8.816406 6.867188 -8.886719 Z M 6.867188 -8.886719 "/>
</g>
<g id="glyph-1-10">
<path d="M 8.75 -16.28125 L 8.75 -9.785156 L 5.957031 -9.785156 L 5.957031 -6.71875 L 9.03125 -6.71875 L 9.03125 -5.382812 L 5.957031 -5.382812 L 5.957031 -1.140625 C 6.933594 -1.382812 8.070312 -1.695312 9.367188 -2.078125 L 9.472656 -0.742188 C 6.941406 0.125 4.140625 0.90625 1.074219 1.601562 L 0.5 0.0976562 C 0.902344 0.0117188 1.28125 -0.0664062 1.640625 -0.136719 L 1.640625 -7.921875 L 3.015625 -7.921875 L 3.015625 -0.4375 L 3.484375 -0.546875 C 4.011719 -0.671875 4.378906 -0.753906 4.578125 -0.800781 L 4.578125 -9.785156 L 1.453125 -9.785156 L 1.453125 -16.28125 L 8.75 -16.28125 M 2.890625 -14.941406 L 2.890625 -11.085938 L 7.335938 -11.085938 L 7.335938 -14.941406 L 2.890625 -14.941406 M 10.15625 -16.015625 L 19.140625 -16.015625 L 19.140625 -14.679688 L 11.699219 -14.679688 L 11.699219 -11.21875 L 18.496094 -11.21875 L 18.496094 -4.882812 L 11.699219 -4.882812 L 11.699219 -0.839844 L 19.492188 -0.839844 L 19.492188 0.515625 L 11.699219 0.515625 L 11.699219 1.894531 L 10.15625 1.894531 L 10.15625 -16.015625 M 16.953125 -9.882812 L 11.699219 -9.882812 L 11.699219 -6.203125 L 16.953125 -6.203125 Z M 16.953125 -9.882812 "/>
</g>
<g id="glyph-1-11">
<path d="M 7 -2.578125 L 6.894531 -2.78125 C 6.660156 -3.265625 6.441406 -3.664062 6.242188 -3.984375 L 7.234375 -4.5 C 7.925781 -3.394531 8.453125 -2.289062 8.820312 -1.179688 L 7.753906 -0.566406 C 7.625 -0.984375 7.5 -1.324219 7.382812 -1.59375 C 6.0625 -1.257812 4.550781 -0.988281 2.851562 -0.78125 L 2.519531 -2.0625 C 2.996094 -2.09375 3.289062 -2.117188 3.398438 -2.128906 C 3.671875 -2.9375 3.933594 -3.855469 4.1875 -4.882812 L 2.257812 -4.882812 L 2.257812 1.894531 L 0.859375 1.894531 L 0.859375 -6.101562 L 4.472656 -6.101562 C 4.609375 -6.789062 4.703125 -7.277344 4.757812 -7.578125 L 1.375 -7.578125 L 1.375 -13.359375 L 2.753906 -13.359375 L 2.753906 -8.742188 L 8.378906 -8.742188 L 8.378906 -13.359375 L 9.757812 -13.359375 L 9.757812 -7.578125 L 6.179688 -7.578125 C 6.085938 -7 5.980469 -6.507812 5.867188 -6.101562 L 10.273438 -6.101562 L 10.273438 0.34375 C 10.273438 0.863281 10.167969 1.226562 9.960938 1.4375 C 9.757812 1.636719 9.375 1.738281 8.808594 1.738281 C 8.261719 1.738281 7.625 1.699219 6.894531 1.621094 L 6.570312 0.292969 C 7.425781 0.390625 8.054688 0.4375 8.46875 0.4375 C 8.699219 0.4375 8.835938 0.382812 8.875 0.265625 C 8.902344 0.203125 8.914062 0.109375 8.914062 -0.0195312 L 8.914062 -4.882812 L 5.488281 -4.882812 C 5.285156 -4.132812 5.003906 -3.253906 4.640625 -2.246094 C 5.578125 -2.363281 6.363281 -2.472656 7 -2.578125 M 16.335938 -7.921875 L 16.335938 -5.078125 L 18.859375 -5.078125 L 18.859375 -3.796875 L 16.335938 -3.796875 L 16.335938 -0.632812 L 19.578125 -0.632812 L 19.578125 0.703125 L 13.039062 0.703125 L 13.039062 1.90625 L 11.640625 1.90625 L 11.640625 -9.921875 C 11.320312 -9.167969 10.996094 -8.503906 10.664062 -7.9375 L 9.824219 -9.199219 C 10.957031 -11.171875 11.828125 -13.820312 12.441406 -17.140625 L 13.898438 -16.835938 C 13.625 -15.617188 13.335938 -14.535156 13.039062 -13.585938 L 13 -13.4375 L 15.046875 -13.4375 C 15.421875 -14.484375 15.75 -15.671875 16.035156 -17 L 17.519531 -16.679688 C 17.136719 -15.332031 16.765625 -14.25 16.414062 -13.4375 L 19.316406 -13.4375 L 19.316406 -12.117188 L 16.335938 -12.117188 L 16.335938 -9.21875 L 18.859375 -9.21875 L 18.859375 -7.921875 L 16.335938 -7.921875 M 15 -12.117188 L 13.039062 -12.117188 L 13.039062 -9.21875 L 15 -9.21875 L 15 -12.117188 M 15 -7.921875 L 13.039062 -7.921875 L 13.039062 -5.078125 L 15 -5.078125 L 15 -7.921875 M 15 -3.796875 L 13.039062 -3.796875 L 13.039062 -0.632812 L 15 -0.632812 L 15 -3.796875 M 6.28125 -15.359375 L 10.539062 -15.359375 L 10.539062 -14.121094 L 0.5 -14.121094 L 0.5 -15.359375 L 4.8125 -15.359375 L 4.8125 -17.101562 L 6.28125 -17.101562 L 6.28125 -15.359375 M 4.84375 -11.335938 C 4.34375 -11.710938 3.78125 -12.089844 3.15625 -12.480469 L 3.859375 -13.339844 C 4.554688 -12.898438 5.148438 -12.5 5.632812 -12.148438 C 6.117188 -12.707031 6.511719 -13.210938 6.816406 -13.664062 L 7.882812 -13.015625 C 7.496094 -12.507812 7.066406 -11.992188 6.59375 -11.464844 C 7.085938 -11.101562 7.613281 -10.675781 8.171875 -10.195312 L 7.421875 -9.277344 C 6.953125 -9.699219 6.476562 -10.101562 5.984375 -10.476562 L 5.789062 -10.644531 C 5.160156 -10.03125 4.5 -9.492188 3.820312 -9.023438 L 3.015625 -9.921875 C 3.707031 -10.351562 4.316406 -10.824219 4.84375 -11.335938 Z M 4.84375 -11.335938 "/>
</g>
<g id="glyph-2-0">
<path d="M 0 -11.972656 L 0 -0.253906 L -13.546875 -6.386719 L 0 -11.972656 M -0.800781 -9.667969 L -10.242188 -5.773438 L -0.800781 -1.476562 Z M -0.800781 -9.667969 "/>
</g>
<g id="glyph-3-0">
<path d="M 0 0.03125 L -14.316406 -5.46875 L -14.316406 -7.511719 L 0 -13.367188 L 0 -11.210938 L -4.335938 -9.539062 L -4.335938 -3.554688 L 0 -1.984375 L 0 0.03125 M -5.878906 -4.101562 L -5.878906 -8.953125 L -9.84375 -7.460938 C -11.046875 -7.003906 -12.039062 -6.667969 -12.8125 -6.445312 C -11.894531 -6.261719 -10.984375 -6.007812 -10.078125 -5.675781 Z M -5.878906 -4.101562 "/>
</g>
<g id="glyph-3-1">
<path d="M 0 -1.867188 L -14.316406 -1.867188 L -14.316406 -3.761719 L 0 -3.757812 Z M 0 -1.867188 "/>
</g>
<g id="glyph-3-2">
<path d="M -5.019531 -11.757812 L -4.539062 -13.652344 C -2.984375 -13.253906 -1.796875 -12.539062 -0.980469 -11.507812 C -0.164062 -10.476562 0.246094 -9.214844 0.246094 -7.726562 C 0.246094 -6.179688 -0.0703125 -4.925781 -0.699219 -3.960938 C -1.328125 -2.992188 -2.234375 -2.257812 -3.429688 -1.753906 C -4.617188 -1.25 -5.898438 -0.996094 -7.265625 -0.996094 C -8.757812 -0.996094 -10.058594 -1.28125 -11.167969 -1.851562 C -12.277344 -2.421875 -13.121094 -3.230469 -13.695312 -4.28125 C -14.273438 -5.332031 -14.5625 -6.492188 -14.5625 -7.753906 C -14.5625 -9.1875 -14.195312 -10.390625 -13.46875 -11.367188 C -12.738281 -12.34375 -11.710938 -13.023438 -10.390625 -13.40625 L -9.953125 -11.542969 C -10.992188 -11.210938 -11.75 -10.730469 -12.226562 -10.097656 C -12.703125 -9.464844 -12.9375 -8.671875 -12.9375 -7.714844 C -12.9375 -6.613281 -12.675781 -5.695312 -12.148438 -4.957031 C -11.621094 -4.21875 -10.914062 -3.699219 -10.023438 -3.398438 C -9.136719 -3.097656 -8.21875 -2.949219 -7.273438 -2.949219 C -6.058594 -2.949219 -4.996094 -3.125 -4.085938 -3.480469 C -3.179688 -3.835938 -2.5 -4.386719 -2.050781 -5.136719 C -1.601562 -5.886719 -1.375 -6.695312 -1.375 -7.570312 C -1.375 -8.628906 -1.683594 -9.527344 -2.292969 -10.265625 C -2.90625 -11 -3.816406 -11.496094 -5.019531 -11.757812 Z M -5.019531 -11.757812 "/>
</g>
</g>
<clipPath id="clip-0">
<path clip-rule="nonzero" d="M 89.800781 39.601562 L 377.800781 39.601562 L 377.800781 291.601562 L 89.800781 291.601562 Z M 89.800781 39.601562 "/>
</clipPath>
<clipPath id="clip-1">
<path clip-rule="nonzero" d="M 223 136 L 226 136 L 226 291.601562 L 223 291.601562 Z M 223 136 "/>
</clipPath>
<clipPath id="clip-2">
<path clip-rule="nonzero" d="M 215 270 L 218 270 L 218 291.601562 L 215 291.601562 Z M 215 270 "/>
</clipPath>
<clipPath id="clip-3">
<path clip-rule="nonzero" d="M 355 168 L 358 168 L 358 291.601562 L 355 291.601562 Z M 355 168 "/>
</clipPath>
</defs>
<rect x="-41" y="-36" width="492" height="432" fill="rgb(99.607843%, 96.862745%, 85.882353%)" fill-opacity="1"/>
<g clip-path="url(#clip-0)">
<path fill-rule="nonzero" fill="rgb(100%, 100%, 100%)" fill-opacity="1" stroke-width="0.75" stroke-linecap="round" stroke-linejoin="round" stroke="rgb(0%, 0%, 0%)" stroke-opacity="1" stroke-miterlimit="10" d="M 89.800781 291.601562 L 377.800781 291.601562 L 377.800781 39.601562 L 89.800781 39.601562 Z M 89.800781 291.601562 "/>
</g>
<path fill="none" stroke-width="2.25" stroke-linecap="round" stroke-linejoin="round" stroke="rgb(86.666667%, 31.764706%, 16.078431%)" stroke-opacity="1" stroke-miterlimit="10" d="M 100.464844 289.46875 L 105.910156 278.316406 L 111.351562 267.199219 L 116.792969 256.160156 L 122.234375 245.257812 L 127.675781 234.539062 L 133.121094 224.0625 L 138.5625 213.882812 L 144.003906 204.054688 L 149.445312 194.65625 L 154.886719 185.773438 L 160.332031 177.503906 L 165.773438 169.957031 L 171.214844 163.234375 L 176.65625 157.402344 L 182.097656 152.503906 L 187.542969 148.523438 L 192.984375 145.402344 L 198.425781 143.03125 L 203.867188 141.28125 L 209.308594 140.015625 L 214.753906 139.105469 L 220.195312 138.457031 L 225.636719 138.019531 L 231.078125 137.773438 L 236.519531 137.722656 L 241.964844 137.894531 L 247.40625 138.292969 L 252.847656 138.90625 L 258.289062 139.6875 L 263.730469 140.550781 L 269.175781 141.398438 L 274.617188 142.121094 L 280.058594 142.628906 L 285.5 142.851562 L 290.941406 142.773438 L 296.386719 142.402344 L 301.828125 141.796875 L 307.269531 141.019531 L 312.710938 140.136719 L 318.152344 139.199219 L 323.597656 138.238281 L 329.039062 137.253906 L 334.480469 136.222656 L 339.921875 135.121094 L 345.363281 133.917969 L 350.808594 132.609375 L 356.25 131.207031 L 361.691406 129.734375 L 367.132812 128.230469 "/>
<path fill="none" stroke-width="2.25" stroke-linecap="round" stroke-linejoin="round" stroke="rgb(5.882353%, 48.235294%, 63.529412%)" stroke-opacity="1" stroke-miterlimit="10" d="M 100.464844 285.492188 L 105.910156 284.730469 L 111.351562 283.960938 L 116.792969 283.171875 L 122.234375 282.355469 L 127.675781 281.507812 L 133.121094 280.632812 L 138.5625 279.726562 L 144.003906 278.8125 L 149.445312 277.902344 L 154.886719 277.019531 L 160.332031 276.175781 L 165.773438 275.390625 L 171.214844 274.683594 L 176.65625 274.054688 L 182.097656 273.519531 L 187.542969 273.070312 L 192.984375 272.707031 L 198.425781 272.425781 L 203.867188 272.210938 L 209.308594 272.054688 L 214.753906 271.941406 L 220.195312 271.855469 L 225.636719 271.773438 L 231.078125 271.6875 L 236.519531 271.582031 L 241.964844 271.445312 L 247.40625 271.277344 L 252.847656 271.082031 L 258.289062 270.867188 L 263.730469 270.640625 L 269.175781 270.414062 L 274.617188 270.203125 L 280.058594 270.011719 L 285.5 269.851562 L 290.941406 269.71875 L 296.386719 269.605469 L 301.828125 269.515625 L 307.269531 269.4375 L 312.710938 269.367188 L 318.152344 269.300781 L 323.597656 269.246094 L 329.039062 269.203125 L 334.480469 269.175781 L 339.921875 269.171875 L 345.363281 269.191406 L 350.808594 269.238281 L 356.25 269.300781 L 361.691406 269.378906 L 367.132812 269.464844 "/>
<path fill="none" stroke-width="2.25" stroke-linecap="round" stroke-linejoin="round" stroke="rgb(26.27451%, 69.803922%, 51.764706%)" stroke-opacity="1" stroke-miterlimit="10" d="M 100.464844 288.835938 L 105.910156 281.257812 L 111.351562 273.667969 L 116.792969 266.066406 L 122.234375 258.484375 L 127.675781 250.984375 L 133.121094 243.664062 L 138.5625 236.652344 L 144.003906 230.082031 L 149.445312 224.074219 L 154.886719 218.707031 L 160.332031 214.015625 L 165.773438 209.972656 L 171.214844 206.507812 L 176.65625 203.515625 L 182.097656 200.875 L 187.542969 198.472656 L 192.984375 196.230469 L 198.425781 194.105469 L 203.867188 192.089844 L 209.308594 190.214844 L 214.753906 188.523438 L 220.195312 187.050781 L 225.636719 185.824219 L 231.078125 184.832031 L 236.519531 184.050781 L 241.964844 183.417969 L 247.40625 182.871094 L 252.847656 182.351562 L 258.289062 181.816406 L 263.730469 181.234375 L 269.175781 180.609375 L 280.058594 179.304688 L 285.5 178.667969 L 290.941406 178.0625 L 296.386719 177.488281 L 301.828125 176.929688 L 307.269531 176.359375 L 312.710938 175.757812 L 318.152344 175.105469 L 323.597656 174.394531 L 329.039062 173.640625 L 339.921875 172.078125 L 345.363281 171.316406 L 350.808594 170.589844 L 356.25 169.902344 L 361.691406 169.238281 L 367.132812 168.589844 "/>
<path fill="none" stroke-width="1.125" stroke-linecap="round" stroke-linejoin="round" stroke="rgb(0%, 0%, 0%)" stroke-opacity="0.501961" stroke-miterlimit="10" d="M 100.464844 284.949219 L 105.910156 282.785156 L 111.351562 273.195312 L 116.792969 255.589844 L 122.234375 241.113281 L 127.675781 232.867188 L 133.121094 221.402344 L 138.5625 217.96875 L 144.003906 201.859375 L 149.445312 197.046875 L 154.886719 189.03125 L 160.332031 177.296875 L 165.773438 167.945312 L 171.214844 162.25 L 176.65625 156.40625 L 182.097656 149.71875 L 187.542969 146.421875 L 192.984375 145.824219 L 198.425781 144.390625 L 203.867188 143.335938 L 209.308594 142.136719 L 214.753906 139.132812 L 220.195312 137.726562 L 225.636719 137.601562 L 231.078125 137.132812 L 236.519531 136.425781 L 241.964844 137.480469 L 247.40625 139.128906 L 252.847656 139.503906 L 258.289062 139.777344 L 263.730469 140.453125 L 269.175781 141.871094 L 274.617188 141.703125 L 280.058594 142.613281 L 285.5 143.1875 L 290.941406 143.488281 L 296.386719 143.160156 L 301.828125 141.800781 L 307.269531 140.203125 L 312.710938 139.703125 L 318.152344 139.226562 L 323.597656 138.246094 L 329.039062 137.746094 L 334.480469 136.371094 L 339.921875 135.003906 L 345.363281 133.507812 L 350.808594 132.628906 L 356.25 131.308594 L 361.691406 129.71875 L 367.132812 128.125 "/>
<path fill="none" stroke-width="1.125" stroke-linecap="round" stroke-linejoin="round" stroke="rgb(0%, 0%, 0%)" stroke-opacity="0.501961" stroke-miterlimit="10" d="M 100.464844 285.027344 L 105.910156 285.367188 L 111.351562 283.808594 L 116.792969 282.832031 L 122.234375 281.5625 L 127.675781 282.316406 L 133.121094 281.628906 L 138.5625 280.757812 L 144.003906 278.667969 L 149.445312 276.976562 L 154.886719 276.425781 L 160.332031 275.8125 L 165.773438 274.726562 L 171.214844 274.886719 L 176.65625 274.890625 L 182.097656 274.390625 L 187.542969 272.957031 L 192.984375 272.371094 L 198.425781 271.929688 L 203.867188 271.730469 L 209.308594 271.453125 L 214.753906 271.398438 L 220.195312 272.121094 L 225.636719 272.515625 L 231.078125 272.554688 L 236.519531 272.109375 L 241.964844 271.414062 L 247.40625 271.1875 L 252.847656 270.847656 L 258.289062 270.414062 L 263.730469 270.660156 L 269.175781 270.269531 L 274.617188 270.007812 L 280.058594 270.089844 L 285.5 270.105469 L 290.941406 269.851562 L 296.386719 269.761719 L 301.828125 269.390625 L 307.269531 269.410156 L 312.710938 269.40625 L 318.152344 269.246094 L 323.597656 269.136719 L 329.039062 268.929688 L 334.480469 269.066406 L 339.921875 269.28125 L 345.363281 269.367188 L 350.808594 269.40625 L 356.25 269.296875 L 361.691406 269.347656 L 367.132812 269.433594 "/>
<path fill="none" stroke-width="1.125" stroke-linecap="round" stroke-linejoin="round" stroke="rgb(0%, 0%, 0%)" stroke-opacity="0.501961" stroke-miterlimit="10" d="M 100.464844 283.664062 L 105.910156 281.417969 L 111.351562 278.710938 L 116.792969 272.027344 L 122.234375 261.410156 L 127.675781 247.25 L 133.121094 240.574219 L 138.5625 237.433594 L 144.003906 224.488281 L 149.445312 223.789062 L 154.886719 219.789062 L 160.332031 214.339844 L 165.773438 210.070312 L 171.214844 207.855469 L 176.65625 203.707031 L 182.097656 200.125 L 187.542969 199.699219 L 192.984375 196.230469 L 198.425781 193.269531 L 203.867188 192.203125 L 209.308594 190.070312 L 214.753906 187.804688 L 220.195312 187.050781 L 225.636719 186.351562 L 231.078125 185.460938 L 236.519531 184.4375 L 241.964844 183.371094 L 247.40625 182.5 L 252.847656 181.765625 L 258.289062 181.570312 L 263.730469 181.25 L 269.175781 180.917969 L 274.617188 180.011719 L 280.058594 179.699219 L 285.5 178.96875 L 290.941406 178.160156 L 296.386719 177.542969 L 301.828125 176.960938 L 307.269531 175.839844 L 312.710938 175.539062 L 318.152344 175.109375 L 323.597656 174.457031 L 329.039062 173.617188 L 334.480469 173.183594 L 339.921875 172.15625 L 345.363281 171.171875 L 350.808594 170.273438 L 356.25 170.324219 L 361.691406 169.429688 L 367.132812 168.265625 "/>
<g clip-path="url(#clip-1)">
<path fill="none" stroke-width="2.25" stroke-linecap="round" stroke-linejoin="round" stroke="rgb(86.666667%, 31.764706%, 16.078431%)" stroke-opacity="1" stroke-dasharray="9 9" stroke-miterlimit="10" d="M 224.371094 291.601562 L 224.371094 138.121094 "/>
</g>
<g clip-path="url(#clip-2)">
<path fill="none" stroke-width="2.25" stroke-linecap="round" stroke-linejoin="round" stroke="rgb(5.882353%, 48.235294%, 63.529412%)" stroke-opacity="1" stroke-dasharray="9 9" stroke-miterlimit="10" d="M 216.292969 291.601562 L 216.292969 271.917969 "/>
</g>
<g clip-path="url(#clip-3)">
<path fill="none" stroke-width="2.25" stroke-linecap="round" stroke-linejoin="round" stroke="rgb(26.27451%, 69.803922%, 51.764706%)" stroke-opacity="1" stroke-dasharray="9 9" stroke-miterlimit="10" d="M 356.359375 291.601562 L 356.359375 169.886719 "/>
</g>
<path fill="none" stroke-width="2.25" stroke-linecap="round" stroke-linejoin="round" stroke="rgb(86.666667%, 31.764706%, 16.078431%)" stroke-opacity="1" stroke-miterlimit="10" d="M 100.601562 58.515625 L 122.199219 58.515625 "/>
<path fill="none" stroke-width="2.25" stroke-linecap="round" stroke-linejoin="round" stroke="rgb(5.882353%, 48.235294%, 63.529412%)" stroke-opacity="1" stroke-miterlimit="10" d="M 100.601562 81.03125 L 122.199219 81.03125 "/>
<path fill="none" stroke-width="2.25" stroke-linecap="round" stroke-linejoin="round" stroke="rgb(26.27451%, 69.803922%, 51.764706%)" stroke-opacity="1" stroke-miterlimit="10" d="M 100.601562 103.550781 L 122.199219 103.550781 "/>
<g fill="rgb(0%, 0%, 0%)" fill-opacity="1">
<use xlink:href="#glyph-0-0" x="133" y="66.175781"/>
<use xlink:href="#glyph-0-1" x="143" y="66.175781"/>
<use xlink:href="#glyph-0-2" x="154.123047" y="66.175781"/>
<use xlink:href="#glyph-0-3" x="165.246094" y="66.175781"/>
<use xlink:href="#glyph-0-4" x="176.369141" y="66.175781"/>
<use xlink:href="#glyph-0-5" x="187.492188" y="66.175781"/>
<use xlink:href="#glyph-0-6" x="197.492188" y="66.175781"/>
<use xlink:href="#glyph-0-7" x="203.048828" y="66.175781"/>
<use xlink:href="#glyph-0-4" x="213.048828" y="66.175781"/>
<use xlink:href="#glyph-0-8" x="224.171875" y="66.175781"/>
<use xlink:href="#glyph-0-0" x="235.294922" y="66.175781"/>
<use xlink:href="#glyph-0-9" x="245.294922" y="66.175781"/>
<use xlink:href="#glyph-0-8" x="249.738281" y="66.175781"/>
<use xlink:href="#glyph-0-7" x="260.861328" y="66.175781"/>
<use xlink:href="#glyph-0-10" x="270.861328" y="66.175781"/>
<use xlink:href="#glyph-0-11" x="277.521484" y="66.175781"/>
<use xlink:href="#glyph-0-12" x="291.964844" y="66.175781"/>
<use xlink:href="#glyph-0-13" x="305.304688" y="66.175781"/>
<use xlink:href="#glyph-0-14" x="319.748047" y="66.175781"/>
<use xlink:href="#glyph-0-15" x="331.427734" y="66.175781"/>
<use xlink:href="#glyph-0-16" x="342.550781" y="66.175781"/>
<use xlink:href="#glyph-0-17" x="353.673828" y="66.175781"/>
</g>
<g fill="rgb(0%, 0%, 0%)" fill-opacity="1">
<use xlink:href="#glyph-0-0" x="133" y="88.691406"/>
<use xlink:href="#glyph-0-1" x="143" y="88.691406"/>
<use xlink:href="#glyph-0-2" x="154.123047" y="88.691406"/>
<use xlink:href="#glyph-0-3" x="165.246094" y="88.691406"/>
<use xlink:href="#glyph-0-4" x="176.369141" y="88.691406"/>
<use xlink:href="#glyph-0-5" x="187.492188" y="88.691406"/>
<use xlink:href="#glyph-0-6" x="197.492188" y="88.691406"/>
<use xlink:href="#glyph-0-7" x="203.048828" y="88.691406"/>
<use xlink:href="#glyph-0-4" x="213.048828" y="88.691406"/>
<use xlink:href="#glyph-0-8" x="224.171875" y="88.691406"/>
<use xlink:href="#glyph-0-0" x="235.294922" y="88.691406"/>
<use xlink:href="#glyph-0-9" x="245.294922" y="88.691406"/>
<use xlink:href="#glyph-0-8" x="249.738281" y="88.691406"/>
<use xlink:href="#glyph-0-7" x="260.861328" y="88.691406"/>
<use xlink:href="#glyph-0-10" x="270.861328" y="88.691406"/>
<use xlink:href="#glyph-0-11" x="277.521484" y="88.691406"/>
<use xlink:href="#glyph-0-12" x="291.964844" y="88.691406"/>
<use xlink:href="#glyph-0-13" x="305.304688" y="88.691406"/>
<use xlink:href="#glyph-0-18" x="319.748047" y="88.691406"/>
<use xlink:href="#glyph-0-19" x="331.427734" y="88.691406"/>
<use xlink:href="#glyph-0-15" x="343.107422" y="88.691406"/>
<use xlink:href="#glyph-0-16" x="354.230469" y="88.691406"/>
<use xlink:href="#glyph-0-17" x="365.353516" y="88.691406"/>
</g>
<g fill="rgb(0%, 0%, 0%)" fill-opacity="1">
<use xlink:href="#glyph-0-2" x="133" y="111.207031"/>
<use xlink:href="#glyph-0-3" x="144.123047" y="111.207031"/>
<use xlink:href="#glyph-0-2" x="155.246094" y="111.207031"/>
<use xlink:href="#glyph-0-20" x="166.369141" y="111.207031"/>
<use xlink:href="#glyph-0-0" x="173.029297" y="111.207031"/>
<use xlink:href="#glyph-0-1" x="183.029297" y="111.207031"/>
<use xlink:href="#glyph-0-2" x="194.152344" y="111.207031"/>
<use xlink:href="#glyph-0-3" x="205.275391" y="111.207031"/>
<use xlink:href="#glyph-0-4" x="216.398438" y="111.207031"/>
<use xlink:href="#glyph-0-5" x="227.521484" y="111.207031"/>
<use xlink:href="#glyph-0-6" x="237.521484" y="111.207031"/>
<use xlink:href="#glyph-0-7" x="243.078125" y="111.207031"/>
<use xlink:href="#glyph-0-4" x="253.078125" y="111.207031"/>
<use xlink:href="#glyph-0-8" x="264.201172" y="111.207031"/>
<use xlink:href="#glyph-0-0" x="275.324219" y="111.207031"/>
<use xlink:href="#glyph-0-9" x="285.324219" y="111.207031"/>
<use xlink:href="#glyph-0-8" x="289.767578" y="111.207031"/>
<use xlink:href="#glyph-0-7" x="300.890625" y="111.207031"/>
</g>
<path fill="none" stroke-width="0.75" stroke-linecap="round" stroke-linejoin="round" stroke="rgb(86.666667%, 31.764706%, 16.078431%)" stroke-opacity="1" stroke-miterlimit="10" d="M 228.421875 138.121094 C 228.421875 143.523438 220.324219 143.523438 220.324219 138.121094 C 220.324219 132.722656 228.421875 132.722656 228.421875 138.121094 "/>
<path fill="none" stroke-width="0.75" stroke-linecap="round" stroke-linejoin="round" stroke="rgb(5.882353%, 48.235294%, 63.529412%)" stroke-opacity="1" stroke-miterlimit="10" d="M 220.339844 271.917969 C 220.339844 277.316406 212.242188 277.316406 212.242188 271.917969 C 212.242188 266.519531 220.339844 266.519531 220.339844 271.917969 "/>
<path fill="none" stroke-width="0.75" stroke-linecap="round" stroke-linejoin="round" stroke="rgb(26.27451%, 69.803922%, 51.764706%)" stroke-opacity="1" stroke-miterlimit="10" d="M 360.410156 169.886719 C 360.410156 175.289062 352.308594 175.289062 352.308594 169.886719 C 352.308594 164.488281 360.410156 164.488281 360.410156 169.886719 "/>
<path fill="none" stroke-width="1.5" stroke-linecap="round" stroke-linejoin="round" stroke="rgb(0%, 0%, 0%)" stroke-opacity="1" stroke-miterlimit="10" d="M 89.800781 291.601562 L 377.800781 291.601562 L 377.800781 39.601562 L 89.800781 39.601562 Z M 89.800781 291.601562 "/>
<path fill="none" stroke-width="1.125" stroke-linecap="round" stroke-linejoin="round" stroke="rgb(0%, 0%, 0%)" stroke-opacity="1" stroke-miterlimit="10" d="M 95.023438 291.601562 L 367.132812 291.601562 "/>
<path fill="none" stroke-width="1.125" stroke-linecap="round" stroke-linejoin="round" stroke="rgb(0%, 0%, 0%)" stroke-opacity="1" stroke-miterlimit="10" d="M 95.023438 291.601562 L 95.023438 299.160156 "/>
<path fill="none" stroke-width="1.125" stroke-linecap="round" stroke-linejoin="round" stroke="rgb(0%, 0%, 0%)" stroke-opacity="1" stroke-miterlimit="10" d="M 149.445312 291.601562 L 149.445312 299.160156 "/>
<path fill="none" stroke-width="1.125" stroke-linecap="round" stroke-linejoin="round" stroke="rgb(0%, 0%, 0%)" stroke-opacity="1" stroke-miterlimit="10" d="M 203.867188 291.601562 L 203.867188 299.160156 "/>
<path fill="none" stroke-width="1.125" stroke-linecap="round" stroke-linejoin="round" stroke="rgb(0%, 0%, 0%)" stroke-opacity="1" stroke-miterlimit="10" d="M 258.289062 291.601562 L 258.289062 299.160156 "/>
<path fill="none" stroke-width="1.125" stroke-linecap="round" stroke-linejoin="round" stroke="rgb(0%, 0%, 0%)" stroke-opacity="1" stroke-miterlimit="10" d="M 312.710938 291.601562 L 312.710938 299.160156 "/>
<path fill="none" stroke-width="1.125" stroke-linecap="round" stroke-linejoin="round" stroke="rgb(0%, 0%, 0%)" stroke-opacity="1" stroke-miterlimit="10" d="M 367.132812 291.601562 L 367.132812 299.160156 "/>
<g fill="rgb(0%, 0%, 0%)" fill-opacity="1">
<use xlink:href="#glyph-0-16" x="89.460938" y="317.519531"/>
</g>
<g fill="rgb(0%, 0%, 0%)" fill-opacity="1">
<use xlink:href="#glyph-0-21" x="138.320312" y="317.519531"/>
<use xlink:href="#glyph-0-16" x="149.443359" y="317.519531"/>
</g>
<g fill="rgb(0%, 0%, 0%)" fill-opacity="1">
<use xlink:href="#glyph-0-22" x="192.742188" y="317.519531"/>
<use xlink:href="#glyph-0-16" x="203.865234" y="317.519531"/>
</g>
<g fill="rgb(0%, 0%, 0%)" fill-opacity="1">
<use xlink:href="#glyph-0-15" x="247.164062" y="317.519531"/>
<use xlink:href="#glyph-0-16" x="258.287109" y="317.519531"/>
</g>
<g fill="rgb(0%, 0%, 0%)" fill-opacity="1">
<use xlink:href="#glyph-0-23" x="301.585938" y="317.519531"/>
<use xlink:href="#glyph-0-16" x="312.708984" y="317.519531"/>
</g>
<g fill="rgb(0%, 0%, 0%)" fill-opacity="1">
<use xlink:href="#glyph-0-24" x="356.007812" y="317.519531"/>
<use xlink:href="#glyph-0-16" x="367.130859" y="317.519531"/>
</g>
<path fill="none" stroke-width="1.125" stroke-linecap="round" stroke-linejoin="round" stroke="rgb(0%, 0%, 0%)" stroke-opacity="1" stroke-miterlimit="10" d="M 122.234375 291.601562 L 339.921875 291.601562 "/>
<path fill="none" stroke-width="1.125" stroke-linecap="round" stroke-linejoin="round" stroke="rgb(0%, 0%, 0%)" stroke-opacity="1" stroke-miterlimit="10" d="M 122.234375 291.601562 L 122.234375 295.378906 "/>
<path fill="none" stroke-width="1.125" stroke-linecap="round" stroke-linejoin="round" stroke="rgb(0%, 0%, 0%)" stroke-opacity="1" stroke-miterlimit="10" d="M 176.65625 291.601562 L 176.65625 295.378906 "/>
<path fill="none" stroke-width="1.125" stroke-linecap="round" stroke-linejoin="round" stroke="rgb(0%, 0%, 0%)" stroke-opacity="1" stroke-miterlimit="10" d="M 231.078125 291.601562 L 231.078125 295.378906 "/>
<path fill="none" stroke-width="1.125" stroke-linecap="round" stroke-linejoin="round" stroke="rgb(0%, 0%, 0%)" stroke-opacity="1" stroke-miterlimit="10" d="M 285.5 291.601562 L 285.5 295.378906 "/>
<path fill="none" stroke-width="1.125" stroke-linecap="round" stroke-linejoin="round" stroke="rgb(0%, 0%, 0%)" stroke-opacity="1" stroke-miterlimit="10" d="M 339.921875 291.601562 L 339.921875 295.378906 "/>
<path fill="none" stroke-width="1.125" stroke-linecap="round" stroke-linejoin="round" stroke="rgb(0%, 0%, 0%)" stroke-opacity="1" stroke-miterlimit="10" d="M 89.800781 282.265625 L 89.800781 48.933594 "/>
<path fill="none" stroke-width="1.125" stroke-linecap="round" stroke-linejoin="round" stroke="rgb(0%, 0%, 0%)" stroke-opacity="1" stroke-miterlimit="10" d="M 89.800781 282.265625 L 77.199219 282.265625 "/>
<path fill="none" stroke-width="1.125" stroke-linecap="round" stroke-linejoin="round" stroke="rgb(0%, 0%, 0%)" stroke-opacity="1" stroke-miterlimit="10" d="M 89.800781 204.488281 L 77.199219 204.488281 "/>
<path fill="none" stroke-width="1.125" stroke-linecap="round" stroke-linejoin="round" stroke="rgb(0%, 0%, 0%)" stroke-opacity="1" stroke-miterlimit="10" d="M 89.800781 126.710938 L 77.199219 126.710938 "/>
<path fill="none" stroke-width="1.125" stroke-linecap="round" stroke-linejoin="round" stroke="rgb(0%, 0%, 0%)" stroke-opacity="1" stroke-miterlimit="10" d="M 89.800781 48.933594 L 77.199219 48.933594 "/>
<g fill="rgb(0%, 0%, 0%)" fill-opacity="1">
<use xlink:href="#glyph-0-6" x="42.046875" y="289.925781"/>
<use xlink:href="#glyph-0-6" x="47.603516" y="289.925781"/>
<use xlink:href="#glyph-0-6" x="53.160156" y="289.925781"/>
<use xlink:href="#glyph-0-16" x="58.716797" y="289.925781"/>
</g>
<g fill="rgb(0%, 0%, 0%)" fill-opacity="1">
<use xlink:href="#glyph-0-21" x="35.355469" y="212.148438"/>
<use xlink:href="#glyph-0-16" x="46.478516" y="212.148438"/>
<use xlink:href="#glyph-0-16" x="57.601562" y="212.148438"/>
</g>
<g fill="rgb(0%, 0%, 0%)" fill-opacity="1">
<use xlink:href="#glyph-0-22" x="35.355469" y="134.371094"/>
<use xlink:href="#glyph-0-16" x="46.478516" y="134.371094"/>
<use xlink:href="#glyph-0-16" x="57.601562" y="134.371094"/>
</g>
<g fill="rgb(0%, 0%, 0%)" fill-opacity="1">
<use xlink:href="#glyph-0-15" x="35.355469" y="56.589844"/>
<use xlink:href="#glyph-0-16" x="46.478516" y="56.589844"/>
<use xlink:href="#glyph-0-16" x="57.601562" y="56.589844"/>
</g>
<g fill="rgb(0%, 0%, 0%)" fill-opacity="1">
<use xlink:href="#glyph-1-0" x="166.203125" y="22.320312"/>
<use xlink:href="#glyph-1-1" x="176.203125" y="22.320312"/>
<use xlink:href="#glyph-1-2" x="191.398438" y="22.320312"/>
<use xlink:href="#glyph-1-3" x="201.398438" y="22.320312"/>
<use xlink:href="#glyph-1-4" x="221.398438" y="22.320312"/>
<use xlink:href="#glyph-1-5" x="241.398438" y="22.320312"/>
<use xlink:href="#glyph-1-6" x="261.398438" y="22.320312"/>
<use xlink:href="#glyph-1-7" x="281.398438" y="22.320312"/>
</g>
<g fill="rgb(0%, 0%, 0%)" fill-opacity="1">
<use xlink:href="#glyph-1-8" x="193.800781" y="350.640625"/>
<use xlink:href="#glyph-1-9" x="213.800781" y="350.640625"/>
<use xlink:href="#glyph-1-10" x="233.800781" y="350.640625"/>
<use xlink:href="#glyph-1-11" x="253.800781" y="350.640625"/>
</g>
<g fill="rgb(0%, 0%, 0%)" fill-opacity="1">
<use xlink:href="#glyph-2-0" x="13.675781" y="188.269531"/>
</g>
<g fill="rgb(0%, 0%, 0%)" fill-opacity="1">
<use xlink:href="#glyph-3-0" x="13.675781" y="176.269531"/>
</g>
<g fill="rgb(0%, 0%, 0%)" fill-opacity="1">
<use xlink:href="#glyph-3-1" x="13.675781" y="162.929688"/>
</g>
<g fill="rgb(0%, 0%, 0%)" fill-opacity="1">
<use xlink:href="#glyph-3-2" x="13.675781" y="157.371094"/>
</g>
</svg>
